<?xml version="1.0" standalone="no"?>
<!DOCTYPE svg PUBLIC "-//W3C//DTD SVG 20010904//EN"
 "http://www.w3.org/TR/2001/REC-SVG-20010904/DTD/svg10.dtd">
<svg version="1.0" xmlns="http://www.w3.org/2000/svg"
 width="1024.000000pt" height="1024.000000pt" viewBox="0 0 1024.000000 1024.000000"
 preserveAspectRatio="xMidYMid meet">

<g transform="translate(0.000000,1024.000000) scale(0.100000,-0.100000)"
fill="#000000" stroke="none">
<path d="M4937 7620 c-96 -25 -174 -89 -215 -178 -22 -49 -24 -66 -23 -176 0
-66 5 -186 11 -266 17 -262 -17 -1960 -46 -2320 -9 -107 -17 -296 -17 -420 -2
-213 -1 -228 21 -281 55 -137 133 -191 284 -197 150 -6 258 50 314 164 27 56
29 65 35 268 4 116 10 276 14 356 l7 146 37 21 c20 11 86 56 146 98 61 43 115
78 122 79 13 1 403 -489 532 -669 44 -60 109 -159 145 -220 87 -147 113 -181
164 -215 181 -120 458 -5 503 208 31 152 -76 334 -575 976 -136 176 -250 324
-252 331 -3 6 64 74 147 151 211 193 507 501 549 570 33 55 35 63 35 149 0 80
-3 95 -27 136 -87 149 -262 215 -414 158 -50 -19 -83 -46 -259 -218 -429 -418
-814 -765 -831 -749 -2 3 1 191 8 419 23 792 12 1381 -27 1490 -38 108 -151
186 -281 194 -38 2 -86 0 -107 -5z"/>
<path d="M7464 7609 c-72 -27 -148 -109 -168 -180 -13 -46 -16 -215 -21 -1124
-3 -588 -2 -1176 3 -1305 8 -226 9 -237 35 -286 51 -99 146 -154 268 -154 43
0 95 7 122 16 57 19 131 83 160 138 l22 41 3 1319 c3 1491 9 1377 -77 1465
-85 87 -228 116 -347 70z"/>
<path d="M3480 7365 c-119 -33 -225 -137 -256 -252 -79 -292 236 -538 520
-405 72 34 145 103 178 169 19 41 23 63 23 148 0 89 -3 106 -27 151 -36 69
-124 147 -196 174 -75 28 -172 34 -242 15z"/>
<path d="M3567 6350 c-132 -34 -235 -158 -256 -311 -13 -95 -3 -255 103 -1724
55 -758 58 -958 16 -1090 -15 -46 -33 -80 -56 -103 -30 -30 -39 -34 -71 -29
-87 15 -126 61 -284 341 -100 178 -164 245 -256 272 -202 59 -417 -97 -415
-302 0 -68 12 -104 78 -236 188 -375 398 -589 670 -680 60 -20 89 -23 219 -23
138 0 156 2 223 27 112 41 178 84 278 183 180 179 285 411 301 660 9 152 -19
752 -97 2095 -30 515 -44 695 -56 727 -46 125 -257 228 -397 193z"/>
<path d="M7403 4379 c-65 -25 -145 -96 -172 -152 -28 -58 -28 -158 0 -229 26
-66 96 -166 150 -212 133 -113 303 -108 427 13 132 129 106 323 -66 496 -72
72 -128 99 -217 102 -52 2 -83 -2 -122 -18z"/>
</g>
</svg>
